<?xml version="1.0" encoding="UTF-8"?>
<svg version="1.1" xmlns="http://www.w3.org/2000/svg" width="500" height="500">
<path d="M0 0 C1.12535156 0.00580078 1.12535156 0.00580078 2.2734375 0.01171875 C3.02367187 0.00785156 3.77390625 0.00398437 4.546875 0 C10.14682697 0.01010822 10.14682697 0.01010822 11.2734375 1.13671875 C11.42964305 2.54999822 11.52399923 3.97026465 11.58984375 5.390625 C11.63173828 6.24462891 11.67363281 7.09863281 11.71679688 7.97851562 C11.75611328 8.87634766 11.79542969 9.77417969 11.8359375 10.69921875 C11.87912109 11.60091797 11.92230469 12.50261719 11.96679688 13.43164062 C12.07321892 15.6665036 12.17523738 17.90148183 12.2734375 20.13671875 C12.6034375 19.47671875 12.9334375 18.81671875 13.2734375 18.13671875 C19.8734375 18.13671875 26.4734375 18.13671875 33.2734375 18.13671875 C33.7684375 19.62171875 33.7684375 19.62171875 34.2734375 21.13671875 C35.2634375 21.46671875 36.2534375 21.79671875 37.2734375 22.13671875 C37.2734375 35.99671875 37.2734375 49.85671875 37.2734375 64.13671875 C31.3334375 64.13671875 25.3934375 64.13671875 19.2734375 64.13671875 C18.2734375 63.13671875 18.2734375 63.13671875 18.15991211 59.35131836 C18.16007128 57.66389146 18.16576833 55.9764597 18.17578125 54.2890625 C18.1771962 53.40263565 18.17861115 52.5162088 18.18006897 51.60292053 C18.18568535 48.75998621 18.19824059 45.91712944 18.2109375 43.07421875 C18.21595039 41.15169384 18.22051366 39.22916771 18.22460938 37.30664062 C18.23566009 32.58330326 18.25293567 27.86002417 18.2734375 23.13671875 C17.2834375 23.13671875 16.2934375 23.13671875 15.2734375 23.13671875 C14.9434375 24.45671875 14.6134375 25.77671875 14.2734375 27.13671875 C13.2834375 27.13671875 12.2934375 27.13671875 11.2734375 27.13671875 C11.2734375 39.34671875 11.2734375 51.55671875 11.2734375 64.13671875 C5.3334375 64.13671875 -0.6065625 64.13671875 -6.7265625 64.13671875 C-6.74911675 55.93980905 -6.76747946 47.7429233 -6.77837467 39.54599094 C-6.7836027 35.74020298 -6.79069888 31.93443727 -6.80200195 28.12866211 C-6.8128337 24.45879331 -6.81883994 20.78894597 -6.82143974 17.11906242 C-6.82329347 15.71596883 -6.8269131 14.31287646 -6.83229256 12.90979195 C-6.83950669 10.95102195 -6.83997059 8.99223055 -6.84008789 7.03344727 C-6.8423085 5.91647964 -6.84452911 4.79951202 -6.84681702 3.6486969 C-6.62104513 -1.06741739 -4.13425186 0.00746255 0 0 Z " fill="#FDFDFD" transform="translate(303.7265625,216.86328125)"/>
<path d="M0 0 C11.55 0 23.1 0 35 0 C35.495 1.98 35.495 1.98 36 4 C37.32 4.33 38.64 4.66 40 5 C40 5.99 40 6.98 40 8 C41.32 8.33 42.64 8.66 44 9 C44 18.24 44 27.48 44 37 C42.68 37.66 41.36 38.32 40 39 C40 39.99 40 40.98 40 42 C39.01 42.33 38.02 42.66 37 43 C36.67 43.99 36.34 44.98 36 46 C27.585 46.495 27.585 46.495 19 47 C18.71084731 51.89118777 18.71084731 51.89118777 18.43188477 56.78295898 C18.11111111 61.88888889 18.11111111 61.88888889 17 63 C14.3226862 63.09981214 11.67695825 63.13879875 9 63.125 C7.87464844 63.13080078 7.87464844 63.13080078 6.7265625 63.13671875 C1.12661053 63.12661053 1.12661053 63.12661053 0 62 C-0.09396057 60.06693502 -0.11743517 58.13041162 -0.11352539 56.19506836 C-0.11344986 54.95385727 -0.11337433 53.71264618 -0.11329651 52.43382263 C-0.10818911 51.0691626 -0.1029731 49.70450298 -0.09765625 48.33984375 C-0.095792 46.95121817 -0.09436813 45.56259193 -0.09336853 44.17396545 C-0.08954387 40.51278885 -0.07971403 36.8516517 -0.06866455 33.19049072 C-0.05844932 29.45707747 -0.05381597 25.72365767 -0.04882812 21.99023438 C-0.0386219 14.66012137 -0.01905026 7.3301168 0 0 Z M22 5 C21.67 5.99 21.34 6.98 21 8 C20.01 8.33 19.02 8.66 18 9 C18 19.56 18 30.12 18 41 C18.99 41.33 19.98 41.66 21 42 C21 40.68 21 39.36 21 38 C22.32 38 23.64 38 25 38 C25 27.11 25 16.22 25 5 C24.01 5 23.02 5 22 5 Z " fill="#FDFDFD" transform="translate(245,235)"/>
<path d="M0 0 C1.94326172 0.01933594 1.94326172 0.01933594 3.92578125 0.0390625 C5.28907324 0.07248134 6.65235449 0.10634109 8.015625 0.140625 C9.39450564 0.16069793 10.77341412 0.17894733 12.15234375 0.1953125 C15.52414244 0.24247052 18.89453187 0.30827962 22.265625 0.390625 C22.760625 2.370625 22.760625 2.370625 23.265625 4.390625 C24.585625 4.390625 25.905625 4.390625 27.265625 4.390625 C28.63815231 7.13567963 28.39791755 9.39389912 28.390625 12.453125 C28.39449219 14.07927734 28.39449219 14.07927734 28.3984375 15.73828125 C28.265625 18.390625 28.265625 18.390625 27.265625 19.390625 C24.91248945 19.46334241 22.55728832 19.47433368 20.203125 19.453125 C18.91277344 19.44410156 17.62242188 19.43507812 16.29296875 19.42578125 C15.29394531 19.41417969 14.29492188 19.40257812 13.265625 19.390625 C12.935625 18.400625 12.605625 17.410625 12.265625 16.390625 C11.275625 16.060625 10.285625 15.730625 9.265625 15.390625 C8.935625 12.420625 8.605625 9.450625 8.265625 6.390625 C7.62625 7.050625 6.986875 7.710625 6.328125 8.390625 C4.265625 10.390625 4.265625 10.390625 3.265625 10.390625 C2.935625 24.580625 2.605625 38.770625 2.265625 53.390625 C3.585625 53.720625 4.905625 54.050625 6.265625 54.390625 C6.265625 55.380625 6.265625 56.370625 6.265625 57.390625 C7.255625 57.390625 8.245625 57.390625 9.265625 57.390625 C9.265625 53.100625 9.265625 48.810625 9.265625 44.390625 C12.24485093 44.36378513 15.22383795 44.34386463 18.203125 44.328125 C19.47833008 44.31555664 19.47833008 44.31555664 20.77929688 44.30273438 C21.58818359 44.29951172 22.39707031 44.29628906 23.23046875 44.29296875 C23.9793335 44.28773193 24.72819824 44.28249512 25.49975586 44.27709961 C27.265625 44.390625 27.265625 44.390625 28.265625 45.390625 C28.33806553 47.41026699 28.34939688 49.43229624 28.328125 51.453125 C28.31910156 52.55785156 28.31007812 53.66257812 28.30078125 54.80078125 C28.28917969 55.65542969 28.27757812 56.51007813 28.265625 57.390625 C27.62625 57.65875 26.986875 57.926875 26.328125 58.203125 C23.93430814 59.27730252 23.93430814 59.27730252 23.265625 62.390625 C18.94240039 62.51462535 14.62012898 62.60514756 10.2956543 62.6652832 C8.82606975 62.69036144 7.35660913 62.72443356 5.88745117 62.76782227 C3.76970819 62.82877999 1.65361924 62.85689816 -0.46484375 62.87890625 C-1.73739014 62.90509033 -3.00993652 62.93127441 -4.32104492 62.95825195 C-8.61180837 62.24471036 -10.07861828 60.75889408 -12.734375 57.390625 C-12.734375 56.730625 -12.734375 56.070625 -12.734375 55.390625 C-13.724375 55.060625 -14.714375 54.730625 -15.734375 54.390625 C-16.81583181 49.99791465 -16.89563549 45.69990799 -16.90234375 41.203125 C-16.90567215 40.42300049 -16.90900055 39.64287598 -16.91242981 38.83911133 C-16.91747621 37.19515571 -16.91983884 35.55118992 -16.91967773 33.90722656 C-16.92186776 31.39891683 -16.9400571 28.89104475 -16.95898438 26.3828125 C-16.96191811 24.7812515 -16.96390304 23.17968841 -16.96484375 21.578125 C-16.97202927 20.83216064 -16.97921478 20.08619629 -16.98661804 19.31762695 C-16.96875999 15.22997393 -16.55751914 12.06852588 -14.734375 8.390625 C-13.744375 8.390625 -12.754375 8.390625 -11.734375 8.390625 C-11.651875 7.813125 -11.569375 7.235625 -11.484375 6.640625 C-9.50572037 0.7046611 -5.81112902 -0.10194963 0 0 Z " fill="#F73131" transform="translate(28.734375,218.609375)"/>
<path d="M0 0 C1.12148437 0.00322266 2.24296875 0.00644531 3.3984375 0.00976562 C4.5740625 0.01814453 5.7496875 0.02652344 6.9609375 0.03515625 C8.14429688 0.03966797 9.32765625 0.04417969 10.546875 0.04882812 C13.47661257 0.06064158 16.40625022 0.07711367 19.3359375 0.09765625 C19.8309375 2.07765625 19.8309375 2.07765625 20.3359375 4.09765625 C21.3053125 4.07703125 22.2746875 4.05640625 23.2734375 4.03515625 C26.3359375 4.09765625 26.3359375 4.09765625 27.3359375 5.09765625 C27.40865491 7.4507918 27.41964618 9.80599293 27.3984375 12.16015625 C27.38941406 13.45050781 27.38039062 14.74085938 27.37109375 16.0703125 C27.35949219 17.06933594 27.34789062 18.06835938 27.3359375 19.09765625 C23.0459375 19.09765625 18.7559375 19.09765625 14.3359375 19.09765625 C14.3359375 17.77765625 14.3359375 16.45765625 14.3359375 15.09765625 C13.0159375 15.09765625 11.6959375 15.09765625 10.3359375 15.09765625 C10.3359375 11.79765625 10.3359375 8.49765625 10.3359375 5.09765625 C9.3459375 5.09765625 8.3559375 5.09765625 7.3359375 5.09765625 C7.3359375 6.41765625 7.3359375 7.73765625 7.3359375 9.09765625 C6.0159375 9.09765625 4.6959375 9.09765625 3.3359375 9.09765625 C3.3359375 14.04765625 3.3359375 18.99765625 3.3359375 24.09765625 C4.9859375 24.42765625 6.6359375 24.75765625 8.3359375 25.09765625 C8.3359375 26.08765625 8.3359375 27.07765625 8.3359375 28.09765625 C12.2959375 28.09765625 16.2559375 28.09765625 20.3359375 28.09765625 C20.8309375 30.07765625 20.8309375 30.07765625 21.3359375 32.09765625 C22.6559375 32.42765625 23.9759375 32.75765625 25.3359375 33.09765625 C25.3359375 34.08765625 25.3359375 35.07765625 25.3359375 36.09765625 C26.3259375 36.09765625 27.3159375 36.09765625 28.3359375 36.09765625 C28.3359375 42.03765625 28.3359375 47.97765625 28.3359375 54.09765625 C27.3459375 54.42765625 26.3559375 54.75765625 25.3359375 55.09765625 C25.0059375 56.08765625 24.6759375 57.07765625 24.3359375 58.09765625 C22.73535156 60.26074219 22.73535156 60.26074219 20.3359375 62.09765625 C16.94433594 62.55175781 16.94433594 62.55175781 12.9453125 62.48828125 C11.88839203 62.47979156 11.88839203 62.47979156 10.81011963 62.47113037 C8.56802322 62.44880703 6.32754762 62.39862379 4.0859375 62.34765625 C2.56252315 62.32758577 1.03908364 62.30933595 -0.484375 62.29296875 C-4.2114608 62.24895743 -7.93760337 62.17995997 -11.6640625 62.09765625 C-11.6640625 61.10765625 -11.6640625 60.11765625 -11.6640625 59.09765625 C-12.9840625 58.76765625 -14.3040625 58.43765625 -15.6640625 58.09765625 C-15.6640625 53.47765625 -15.6640625 48.85765625 -15.6640625 44.09765625 C-9.7240625 44.09765625 -3.7840625 44.09765625 2.3359375 44.09765625 C2.53125 47.45052083 2.7265625 50.80338542 2.921875 54.15625 C3.05851562 55.12691406 3.19515625 56.09757812 3.3359375 57.09765625 C3.9959375 57.42765625 4.6559375 57.75765625 5.3359375 58.09765625 C5.6659375 56.77765625 5.9959375 55.45765625 6.3359375 54.09765625 C7.6559375 54.09765625 8.9759375 54.09765625 10.3359375 54.09765625 C10.3359375 48.48765625 10.3359375 42.87765625 10.3359375 37.09765625 C9.0159375 36.76765625 7.6959375 36.43765625 6.3359375 36.09765625 C6.3359375 35.10765625 6.3359375 34.11765625 6.3359375 33.09765625 C5.07136719 33.11505859 5.07136719 33.11505859 3.78125 33.1328125 C2.68554688 33.14183594 1.58984375 33.15085938 0.4609375 33.16015625 C-1.17488281 33.17755859 -1.17488281 33.17755859 -2.84375 33.1953125 C-5.6640625 33.09765625 -5.6640625 33.09765625 -7.6640625 32.09765625 C-7.6640625 31.10765625 -7.6640625 30.11765625 -7.6640625 29.09765625 C-8.6540625 29.09765625 -9.6440625 29.09765625 -10.6640625 29.09765625 C-10.9940625 27.77765625 -11.3240625 26.45765625 -11.6640625 25.09765625 C-12.6540625 25.09765625 -13.6440625 25.09765625 -14.6640625 25.09765625 C-16.09003861 22.24570403 -15.7960877 19.7730445 -15.7890625 16.59765625 C-15.79164063 15.43234375 -15.79421875 14.26703125 -15.796875 13.06640625 C-15.6640625 10.09765625 -15.6640625 10.09765625 -14.6640625 8.09765625 C-13.6740625 8.09765625 -12.6840625 8.09765625 -11.6640625 8.09765625 C-11.0040625 6.77765625 -10.3440625 5.45765625 -9.6640625 4.09765625 C-9.0040625 4.09765625 -8.3440625 4.09765625 -7.6640625 4.09765625 C-7.6640625 3.10765625 -7.6640625 2.11765625 -7.6640625 1.09765625 C-5.00228029 -0.23323485 -2.97666854 -0.01503368 0 0 Z " fill="#FDFDFD" transform="translate(208.6640625,218.90234375)"/>
<path d="M0 0 C3.96 0 7.92 0 12 0 C13 1 13 1 13.0625 4.5625 C13.041875 5.696875 13.02125 6.83125 13 8 C13.66 7.67 14.32 7.34 15 7 C15.33 6.01 15.66 5.02 16 4 C16.99 3.67 17.98 3.34 19 3 C19.33 2.01 19.66 1.02 20 0 C26.6 0 33.2 0 40 0 C40.495 1.485 40.495 1.485 41 3 C41.99 3.33 42.98 3.66 44 4 C44 17.86 44 31.72 44 46 C38.06 46 32.12 46 26 46 C26 32.47 26 18.94 26 5 C25.01 5 24.02 5 23 5 C22.34 6.32 21.68 7.64 21 9 C20.34 9 19.68 9 19 9 C19.00785522 10.62796509 19.00785522 10.62796509 19.01586914 12.28881836 C19.03391836 16.30117982 19.04543171 20.31353767 19.05493164 24.32592773 C19.05997204 26.06519168 19.0668043 27.80445136 19.07543945 29.54370117 C19.08751792 32.03825937 19.09323108 34.53276173 19.09765625 37.02734375 C19.10281754 37.80963852 19.10797882 38.59193329 19.11329651 39.39793396 C19.11349226 41.26567114 19.06199694 43.13329204 19 45 C18.67 45.33 18.34 45.66 18 46 C12.06 46 6.12 46 0 46 C0 30.82 0 15.64 0 0 Z " fill="#FDFDFD" transform="translate(91,235)"/>
<path d="M0 0 C8.91 0 17.82 0 27 0 C27.495 1.98 27.495 1.98 28 4 C28.99 4 29.98 4 31 4 C31.495 5.485 31.495 5.485 32 7 C32.99 7.33 33.98 7.66 35 8 C35.1357683 10.06066104 35.23233903 12.12392757 35.3125 14.1875 C35.37050781 15.33605469 35.42851562 16.48460937 35.48828125 17.66796875 C35 21 35 21 33.125 23.90625 C28.6446287 26.90809877 24.94791164 26.55414435 19.6875 26.3125 C18.75615234 26.28994141 17.82480469 26.26738281 16.86523438 26.24414062 C14.57612873 26.18544561 12.28785439 26.09577065 10 26 C10.33 30.95 10.66 35.9 11 41 C11.66 40.01 12.32 39.02 13 38 C14.485 37.505 14.485 37.505 16 37 C16.33 35.02 16.66 33.04 17 31 C22.94 31 28.88 31 35 31 C35 38 35 38 32.625 40.9375 C30 43 30 43 28 43 C27.67 43.99 27.34 44.98 27 46 C17.76 46 8.52 46 -1 46 C-1.495 44.515 -1.495 44.515 -2 43 C-2.99 42.67 -3.98 42.34 -5 42 C-5 41.01 -5 40.02 -5 39 C-6.32 38.34 -7.64 37.68 -9 37 C-9 27.76 -9 18.52 -9 9 C-7.68 8.67 -6.36 8.34 -5 8 C-4.67 6.68 -4.34 5.36 -4 4 C-3.01 4 -2.02 4 -1 4 C-0.67 2.68 -0.34 1.36 0 0 Z M14 5 C14 5.99 14 6.98 14 8 C12.68 8.33 11.36 8.66 10 9 C10 12.96 10 16.92 10 21 C11.98 21 13.96 21 16 21 C17.39156484 19.83722968 17.39156484 19.83722968 17.09765625 16.62109375 C17.09098369 15.22652923 17.07902532 13.83198257 17.0625 12.4375 C17.05798828 11.72658203 17.05347656 11.01566406 17.04882812 10.28320312 C17.03700864 8.52209987 17.01907263 6.76103964 17 5 C16.01 5 15.02 5 14 5 Z " fill="#FDFDFD" transform="translate(452,235)"/>
<path d="M0 0 C8.91 0 17.82 0 27 0 C27.495 1.98 27.495 1.98 28 4 C28.99 4 29.98 4 31 4 C31.495 5.485 31.495 5.485 32 7 C32.99 7.33 33.98 7.66 35 8 C35.1357683 10.06066104 35.23233903 12.12392757 35.3125 14.1875 C35.37050781 15.33605469 35.42851562 16.48460937 35.48828125 17.66796875 C35 21 35 21 33.125 23.90625 C28.6446287 26.90809877 24.94791164 26.55414435 19.6875 26.3125 C18.75615234 26.28994141 17.82480469 26.26738281 16.86523438 26.24414062 C14.57612873 26.18544561 12.28785439 26.09577065 10 26 C10.33 30.95 10.66 35.9 11 41 C11.66 40.01 12.32 39.02 13 38 C14.485 37.505 14.485 37.505 16 37 C16.33 35.02 16.66 33.04 17 31 C22.94 31 28.88 31 35 31 C35 33.31 35 35.62 35 38 C33.02 38.495 33.02 38.495 31 39 C31 39.99 31 40.98 31 42 C29.40722656 44.16308594 29.40722656 44.16308594 27 46 C23.97558594 46.45410156 23.97558594 46.45410156 20.484375 46.390625 C19.23398438 46.37773437 17.98359375 46.36484375 16.6953125 46.3515625 C14.74238281 46.30128906 14.74238281 46.30128906 12.75 46.25 C11.43257812 46.23195313 10.11515625 46.21390625 8.7578125 46.1953125 C5.50447692 46.14816271 2.25260375 46.08236044 -1 46 C-1 45.01 -1 44.02 -1 43 C-2.32 42.67 -3.64 42.34 -5 42 C-5 41.01 -5 40.02 -5 39 C-6.32 38.34 -7.64 37.68 -9 37 C-9 27.76 -9 18.52 -9 9 C-7.68 8.67 -6.36 8.34 -5 8 C-4.67 6.68 -4.34 5.36 -4 4 C-3.01 4 -2.02 4 -1 4 C-0.67 2.68 -0.34 1.36 0 0 Z M14 5 C14 5.99 14 6.98 14 8 C12.68 8.33 11.36 8.66 10 9 C10 12.96 10 16.92 10 21 C11.98 21 13.96 21 16 21 C17.39156484 19.83722968 17.39156484 19.83722968 17.09765625 16.62109375 C17.09098369 15.22652923 17.07902532 13.83198257 17.0625 12.4375 C17.05798828 11.72658203 17.05347656 11.01566406 17.04882812 10.28320312 C17.03700864 8.52209987 17.01907263 6.76103964 17 5 C16.01 5 15.02 5 14 5 Z " fill="#FDFDFD" transform="translate(152,235)"/>
<path d="M0 0 C9.24 0 18.48 0 28 0 C28.495 1.485 28.495 1.485 29 3 C29.99 3.33 30.98 3.66 32 4 C32.495 5.485 32.495 5.485 33 7 C33.99 7.33 34.98 7.66 36 8 C36 12.29 36 16.58 36 21 C34.68 21.33 33.36 21.66 32 22 C32 22.99 32 23.98 32 25 C29.65147472 26.17426264 28.26225935 26.11508173 25.6484375 26.09765625 C24.37226563 26.09282227 24.37226563 26.09282227 23.0703125 26.08789062 C21.73613281 26.07532227 21.73613281 26.07532227 20.375 26.0625 C19.4778125 26.05798828 18.580625 26.05347656 17.65625 26.04882812 C15.43747169 26.03702611 13.21872757 26.01909039 11 26 C11 31.28 11 36.56 11 42 C11.99 41.505 11.99 41.505 13 41 C13.33 40.01 13.66 39.02 14 38 C15.485 37.505 15.485 37.505 17 37 C17.33 35.02 17.66 33.04 18 31 C23.94 31 29.88 31 36 31 C36 33.31 36 35.62 36 38 C34.02 38.495 34.02 38.495 32 39 C32 39.99 32 40.98 32 42 C30.02 42.495 30.02 42.495 28 43 C28 43.99 28 44.98 28 46 C18.76 46 9.52 46 0 46 C-0.495 44.515 -0.495 44.515 -1 43 C-1.99 42.67 -2.98 42.34 -4 42 C-4 41.01 -4 40.02 -4 39 C-5.32 38.67 -6.64 38.34 -8 38 C-8 28.1 -8 18.2 -8 8 C-6.68 8 -5.36 8 -4 8 C-4 6.68 -4 5.36 -4 4 C-2.68 4 -1.36 4 0 4 C0 2.68 0 1.36 0 0 Z M12.828125 6.609375 C10.47373213 9.68819644 10.58359114 11.42259625 10.75 15.25 C10.78609375 16.32765625 10.8221875 17.4053125 10.859375 18.515625 C10.90578125 19.33546875 10.9521875 20.1553125 11 21 C12.99954746 21.04254356 15.00041636 21.04080783 17 21 C18.39156484 19.83722968 18.39156484 19.83722968 18.09765625 16.62109375 C18.09098369 15.22652923 18.07902532 13.83198257 18.0625 12.4375 C18.05798828 11.72658203 18.05347656 11.01566406 18.04882812 10.28320312 C18.03700864 8.52209987 18.01907263 6.76103964 18 5 C14.95119903 4.70231711 14.95119903 4.70231711 12.828125 6.609375 Z " fill="#FDFDFD" transform="translate(357,235)"/>
<path d="M0 0 C3.96 0 7.92 0 12 0 C13 1 13 1 13.0625 4.5625 C13.041875 5.696875 13.02125 6.83125 13 8 C13.66 7.67 14.32 7.34 15 7 C15.33 6.01 15.66 5.02 16 4 C16.99 3.67 17.98 3.34 19 3 C19.33 2.01 19.66 1.02 20 0 C24.62 0 29.24 0 34 0 C34.495 1.485 34.495 1.485 35 3 C35.99 3.33 36.98 3.66 38 4 C38 7.96 38 11.92 38 16 C32.72 16 27.44 16 22 16 C22 13.69 22 11.38 22 9 C21.01 9 20.02 9 19 9 C19.00785522 10.62796509 19.00785522 10.62796509 19.01586914 12.28881836 C19.03391836 16.30117982 19.04543171 20.31353767 19.05493164 24.32592773 C19.05997204 26.06519168 19.0668043 27.80445136 19.07543945 29.54370117 C19.08751792 32.03825937 19.09323108 34.53276173 19.09765625 37.02734375 C19.10281754 37.80963852 19.10797882 38.59193329 19.11329651 39.39793396 C19.11349226 41.26567114 19.06199694 43.13329204 19 45 C18.67 45.33 18.34 45.66 18 46 C12.06 46 6.12 46 0 46 C0 30.82 0 15.64 0 0 Z " fill="#FDFDFD" transform="translate(400,235)"/>
<path d="M0 0 C5.94 0 11.88 0 18 0 C18 15.18 18 30.36 18 46 C12.06 46 6.12 46 0 46 C-1.54501451 44.45498549 -1.12719131 43.0133978 -1.12939453 40.86328125 C-1.13254669 39.98567139 -1.13569885 39.10806152 -1.13894653 38.20385742 C-1.1369223 37.24970947 -1.13489807 36.29556152 -1.1328125 35.3125 C-1.13376923 34.33966064 -1.13472595 33.36682129 -1.13571167 32.36450195 C-1.13639358 30.303222 -1.13453853 28.24193992 -1.13037109 26.18066406 C-1.125023 23.01362312 -1.13031572 19.846724 -1.13671875 16.6796875 C-1.13605797 14.68229135 -1.13477681 12.68489529 -1.1328125 10.6875 C-1.13483673 9.73335205 -1.13686096 8.7792041 -1.13894653 7.79614258 C-1.13579437 6.91853271 -1.13264221 6.04092285 -1.12939453 5.13671875 C-1.12859894 4.36030029 -1.12780334 3.58388184 -1.12698364 2.78393555 C-1 1 -1 1 0 0 Z " fill="#FEFEFE" transform="translate(65,235)"/>
<path d="M0 0 C2.08218362 -0.10832169 4.16599129 -0.18573541 6.25 -0.25 C7.99023438 -0.31960937 7.99023438 -0.31960937 9.765625 -0.390625 C13 0 13 0 15.40234375 1.8203125 C17.51164936 4.69804485 17.37943096 6.50923514 17 10 C16.67 10.66 16.34 11.32 16 12 C15.34 12 14.68 12 14 12 C13.67 12.99 13.34 13.98 13 15 C10.89646505 15.0810206 8.79204048 15.13919907 6.6875 15.1875 C4.92986328 15.23970703 4.92986328 15.23970703 3.13671875 15.29296875 C0 15 0 15 -1.90625 13.78125 C-3.319635 11.47945158 -3.30410114 9.99432631 -3.1875 7.3125 C-3.16042969 6.50425781 -3.13335937 5.69601563 -3.10546875 4.86328125 C-3.07066406 4.24839844 -3.03585938 3.63351563 -3 3 C-2.34 3 -1.68 3 -1 3 C-0.67 2.01 -0.34 1.02 0 0 Z " fill="#FCFCFC" transform="translate(67,217)"/>
<path d="M0 0 C1.94326172 0.01933594 1.94326172 0.01933594 3.92578125 0.0390625 C5.28907324 0.07248134 6.65235449 0.10634109 8.015625 0.140625 C9.39450564 0.16069793 10.77341412 0.17894733 12.15234375 0.1953125 C15.52414244 0.24247052 18.89453187 0.30827962 22.265625 0.390625 C22.760625 2.370625 22.760625 2.370625 23.265625 4.390625 C24.585625 4.390625 25.905625 4.390625 27.265625 4.390625 C28.64788516 7.15514533 28.36087887 9.4367613 28.328125 12.515625 C28.31910156 13.61132812 28.31007812 14.70703125 28.30078125 15.8359375 C28.28917969 16.67898437 28.27757812 17.52203125 28.265625 18.390625 C27.605625 18.390625 26.945625 18.390625 26.265625 18.390625 C26.265625 14.430625 26.265625 10.470625 26.265625 6.390625 C24.945625 6.060625 23.625625 5.730625 22.265625 5.390625 C21.770625 4.400625 21.770625 4.400625 21.265625 3.390625 C12.355625 3.060625 3.445625 2.730625 -5.734375 2.390625 C-6.394375 3.710625 -7.054375 5.030625 -7.734375 6.390625 C-10.21099352 9.28001327 -11.91960384 10.84565769 -15.734375 11.390625 C-15.404375 10.400625 -15.074375 9.410625 -14.734375 8.390625 C-13.744375 8.390625 -12.754375 8.390625 -11.734375 8.390625 C-11.651875 7.813125 -11.569375 7.235625 -11.484375 6.640625 C-9.50572037 0.7046611 -5.81112902 -0.10194963 0 0 Z " fill="#D14140" transform="translate(28.734375,218.609375)"/>
<path d="M0 0 C2.97922593 -0.02683987 5.95821295 -0.04676037 8.9375 -0.0625 C9.78763672 -0.07087891 10.63777344 -0.07925781 11.51367188 -0.08789062 C12.32255859 -0.09111328 13.13144531 -0.09433594 13.96484375 -0.09765625 C14.7137085 -0.10289307 15.46257324 -0.10812988 16.23413086 -0.11352539 C18 0 18 0 19 1 C19.07244053 3.01964199 19.08377188 5.04167124 19.0625 7.0625 C19.05347656 8.16722656 19.04445313 9.27195312 19.03515625 10.41015625 C19.02355469 11.26480469 19.01195313 12.11945313 19 13 C18.01 13.495 18.01 13.495 17 14 C17 10.04 17 6.08 17 2 C11.72 1.67 6.44 1.34 1 1 C1 4.96 1 8.92 1 13 C0.67 13 0.34 13 0 13 C0 8.71 0 4.42 0 0 Z " fill="#CE4446" transform="translate(38,263)"/>
<path d="M0 0 C4.29 0 8.58 0 13 0 C13 0.33 13 0.66 13 1 C9.37 1 5.74 1 2 1 C2 1.66 2 2.32 2 3 C-0.5 4.625 -0.5 4.625 -3 6 C-3 5.01 -3 4.02 -3 3 C-2.34 3 -1.68 3 -1 3 C-0.67 2.01 -0.34 1.02 0 0 Z " fill="#F4F4F4" transform="translate(67,217)"/>
<path d="M0 0 C1.32 0.33 2.64 0.66 4 1 C4 1.99 4 2.98 4 4 C4.99 4.33 5.98 4.66 7 5 C5.35 5.33 3.7 5.66 2 6 C1.67 5.34 1.34 4.68 1 4 C1.33 3.01 1.66 2.02 2 1 C1.34 0.67 0.68 0.34 0 0 Z " fill="#D32E2A" transform="translate(31,272)"/>
</svg>
