<?xml version="1.0" encoding="UTF-8"?>
<svg version="1.1" xmlns="http://www.w3.org/2000/svg" width="500" height="500">
<path d="M0 0 C165 0 330 0 500 0 C500 165 500 330 500 500 C335 500 170 500 0 500 C0 335 0 170 0 0 Z " fill="#38B6FE" transform="translate(0,0)"/>
<path d="M0 0 C165 0 330 0 500 0 C500 165 500 330 500 500 C335 500 170 500 0 500 C0 335 0 170 0 0 Z M91 86 C90.49823242 86.47308594 89.99646484 86.94617188 89.47949219 87.43359375 C49.0278622 125.83012485 23.28590275 183.69971304 21.73591614 239.3631897 C21.67386402 242.93011595 21.66894853 246.49516124 21.6875 250.0625 C21.68965515 250.81835388 21.6918103 251.57420776 21.69403076 252.35296631 C21.92826037 303.95523835 39.24064185 353.3632994 71 394 C71.41121094 394.52835449 71.82242188 395.05670898 72.24609375 395.60107422 C84.49771346 411.14556137 98.92304052 425.45093685 115 437 C116.04027344 437.76183594 117.08054687 438.52367187 118.15234375 439.30859375 C157.53698867 467.39875459 203.94427302 482.48944681 252.3125 482.375 C253.18406738 482.37445618 254.05563477 482.37391235 254.95361328 482.37335205 C270.27385727 482.32966181 284.96971771 481.16199022 300 478 C301.02963867 477.78569336 302.05927734 477.57138672 303.12011719 477.35058594 C341.8885122 469.01968592 378.66082105 450.42444403 407.6328125 423.21484375 C409.66347153 421.31487069 411.73841118 419.52753551 413.875 417.75 C429.40734872 404.19102345 441.15478694 387.36112244 452 370 C452.62648438 369.01773437 453.25296875 368.03546875 453.8984375 367.0234375 C465.67080197 347.84498458 473.38172276 326.26278636 478.75 304.5 C478.93667236 303.75548584 479.12334473 303.01097168 479.31567383 302.24389648 C483.21372079 285.48421994 484.52621749 268.72309829 484.375 251.5625 C484.37067963 250.62533142 484.36635925 249.68816284 484.36190796 248.72259521 C484.28764748 234.95935995 483.84013984 221.51023213 481 208 C480.83371094 207.16065918 480.66742188 206.32131836 480.49609375 205.45654297 C472.21705904 164.3756661 452.66271277 124.95046067 423.546875 94.6640625 C421.51555274 92.5392745 419.61090591 90.3961056 417.75 88.125 C414.52848288 84.31859648 410.80196625 81.21026951 407 78 C405.64648438 76.79730469 405.64648438 76.79730469 404.265625 75.5703125 C381.34884463 55.36323613 354.0389188 40.32005908 325 31 C324.30938477 30.77715332 323.61876953 30.55430664 322.90722656 30.32470703 C240.66079214 4.13439415 153.04706343 27.18081848 91 86 Z " fill="#FEFEFE" transform="translate(0,0)"/>
<path d="M0 0 C1.22460938 -0.00773438 2.44921875 -0.01546875 3.7109375 -0.0234375 C26.8370258 0.02555845 51.53801663 5.65973126 68.625 22.25 C69.98561638 23.8944691 71.32619485 25.55628788 72.625 27.25 C72.08927368 27.98935791 72.08927368 27.98935791 71.54272461 28.74365234 C70.48044302 30.2103437 69.41881227 31.67750655 68.35766602 33.14501953 C67.15870208 34.80136057 65.95735635 36.45598008 64.75366211 38.10888672 C60.97090823 43.31302464 60.97090823 43.31302464 57.4140625 48.671875 C56.55941406 50.00992188 56.55941406 50.00992188 55.6875 51.375 C54.99333984 52.52355469 54.99333984 52.52355469 54.28515625 53.6953125 C52.625 55.25 52.625 55.25 49.69921875 55.72265625 C46.02080193 55.15710551 44.93416741 54.20469384 42.375 51.5625 C35.22282756 44.78171339 27.0502982 41.6836964 17.625 39.25 C15.76488281 38.7240625 15.76488281 38.7240625 13.8671875 38.1875 C9.5120455 37.1101754 5.34790548 36.9040912 0.875 36.9375 C-0.3013501 36.94487183 -0.3013501 36.94487183 -1.50146484 36.95239258 C-11.34639149 37.14921037 -20.58343402 38.8699496 -28.375 45.25 C-33.26577113 50.52688464 -34.79222466 54.55574703 -34.625 61.65234375 C-34.11991111 66.90053304 -32.51129731 70.76937017 -29.3125 74.9375 C-21.19308604 81.32937908 -12.07189982 83.59918153 -2.125 85.75 C-0.79248704 86.05001921 0.5397042 86.3514706 1.87158203 86.65429688 C7.87419899 88.01251544 13.8880996 89.3115703 19.9140625 90.5625 C39.61512326 94.70539588 58.81424247 101.52230134 71.2421875 118.453125 C75.46025944 124.95860908 77.65455062 131.79260697 79.625 139.25 C79.801521 139.87156982 79.97804199 140.49313965 80.15991211 141.13354492 C84.18269804 159.43986052 79.21098182 178.63028849 69.625 194.25 C60.42679414 207.48126536 46.74632151 214.14357084 31.625 218.25 C30.61050781 218.56839844 29.59601563 218.88679687 28.55078125 219.21484375 C12.3444191 223.62736644 -8.05752928 223.06232104 -24.375 219.25 C-25.14295898 219.07227051 -25.91091797 218.89454102 -26.70214844 218.71142578 C-48.17785824 213.5851502 -66.2317921 204.62687437 -80.375 187.25 C-80.96410156 186.58484375 -81.55320312 185.9196875 -82.16015625 185.234375 C-83.375 183.25 -83.375 183.25 -83.375 181.37890625 C-81.89231604 178.2224111 -79.66634235 175.77606021 -77.375 173.1875 C-76.37545746 172.03458589 -75.3767738 170.88092665 -74.37890625 169.7265625 C-73.87633301 169.1480957 -73.37375977 168.56962891 -72.85595703 167.97363281 C-69.87933537 164.50924954 -67.02633323 160.94414213 -64.15234375 157.39453125 C-62.375 155.25 -62.375 155.25 -60.375 153.25 C-56.60358205 153.25 -55.4216938 154.20385554 -52.71875 156.875 C-51.76444821 157.99458881 -50.81687631 159.11993804 -49.875 160.25 C-38.49984674 173.15495803 -23.3649017 181.97610071 -5.95898438 183.45532227 C-3.46873885 183.55230294 -0.99204028 183.57909116 1.5 183.5625 C2.37624023 183.55758545 3.25248047 183.5526709 4.15527344 183.54760742 C10.66789655 183.42988759 16.57419627 182.82525556 22.625 180.25 C23.37007813 179.93289063 24.11515625 179.61578125 24.8828125 179.2890625 C31.80996109 175.68490032 34.24909657 169.37771028 36.625 162.25 C37.52261945 154.23028523 36.13044266 147.11203812 31.36328125 140.5 C21.90075184 130.96296248 4.24542186 128.77838801 -8.375 126.25 C-29.80132739 121.95742802 -52.49014905 115.83033244 -66.41015625 97.58203125 C-76.77158345 81.9848935 -79.27595684 63.49560875 -75.7265625 45.1015625 C-71.35798159 29.68084527 -60.71048446 18.09622241 -47.10546875 10.10546875 C-32.39628138 2.40484713 -16.4126887 -0.10300851 0 0 Z " fill="#FBFEFE" transform="translate(358.375,144.75)"/>
<path d="M0 0 C1.71280151 0.01015137 1.71280151 0.01015137 3.46020508 0.02050781 C27.69105275 0.31745871 51.56309735 6.16284626 69.88671875 22.75 C76.5483773 29.60548935 85.125 40.25933905 85.125 50.25 C83.1048163 51.8307363 81.2442929 53.06227484 79.03515625 54.32421875 C78.41603867 54.69352005 77.79692108 55.06282135 77.15904236 55.4433136 C75.17642247 56.62202904 73.18257119 57.78000832 71.1875 58.9375 C69.19888473 60.1101378 67.2126878 61.28679251 65.22666931 62.46382141 C63.98898472 63.19522755 62.74924882 63.92317522 61.50733948 64.64738464 C58.64994425 66.22160205 58.64994425 66.22160205 56.125 68.25 C53.82421875 68.74609375 53.82421875 68.74609375 51.125 68.25 C49.47907424 65.9322678 48.22383611 63.8180642 46.9375 61.3125 C40.29914279 49.46545696 32.34487571 43.00793421 19.125 39.25 C3.46476595 35.72415783 -13.74299953 36.88885688 -27.69140625 44.859375 C-40.79708023 53.37513336 -48.01453634 66.62331526 -51.42138672 81.66186523 C-53.18049407 91.03785674 -53.2719308 100.30717858 -53.25 109.8125 C-53.24978851 110.65527496 -53.24957703 111.49804993 -53.24935913 112.36636353 C-53.20796522 128.86487895 -52.24662892 144.556937 -43.875 159.25 C-43.42253906 160.04664063 -42.97007813 160.84328125 -42.50390625 161.6640625 C-35.5195073 172.98295294 -24.91119195 179.54783258 -12 182.625 C5.58788486 185.41853763 23.00479872 183.01655336 37.5390625 172.50390625 C45.76803263 165.11689639 50.08047212 153.63721276 53.125 143.25 C57.65554365 143.80212584 61.01770826 144.98284805 65.0390625 147.12109375 C66.12960938 147.69537109 67.22015625 148.26964844 68.34375 148.86132812 C70.02984375 149.7652832 70.02984375 149.7652832 71.75 150.6875 C73.99218076 151.87371066 76.23436799 153.05990909 78.4765625 154.24609375 C79.46479004 154.77388428 80.45301758 155.3016748 81.47119141 155.84545898 C83.67524368 157.01196429 85.88865631 158.14707746 88.125 159.25 C86.97104831 165.47316152 85.23511725 170.98344962 82.5 176.6875 C81.97539185 177.79109863 81.97539185 177.79109863 81.44018555 178.91699219 C78.42549046 185.04204418 74.78625847 190.24496108 70.125 195.25 C69.3 196.136875 68.475 197.02375 67.625 197.9375 C66.8 198.700625 65.975 199.46375 65.125 200.25 C64.62355469 200.76820313 64.12210938 201.28640625 63.60546875 201.8203125 C46.65506661 218.29063789 20.92363795 221.65228465 -1.62841797 221.62060547 C-26.09973918 221.1662308 -48.31176059 213.27074952 -66.875 197.25 C-67.89207031 196.37794922 -67.89207031 196.37794922 -68.9296875 195.48828125 C-78.24790237 186.86238355 -85.38508371 175.05021321 -89.875 163.25 C-90.30425781 162.1465625 -90.73351562 161.043125 -91.17578125 159.90625 C-97.11826099 143.49869532 -98.15985845 127.48648298 -98.25 110.1875 C-98.25794586 109.38778778 -98.26589172 108.58807556 -98.27407837 107.76412964 C-98.38644682 93.01402312 -97.16980545 78.14880999 -92.25 64.125 C-91.99984131 63.39547119 -91.74968262 62.66594238 -91.49194336 61.91430664 C-82.58174672 37.22002848 -65.38081198 19.33747997 -41.9375 8.078125 C-28.56792287 1.89689866 -14.61745955 -0.12596578 0 0 Z " fill="#FBFEFE" transform="translate(170.875,144.75)"/>
<path d="M0 0 C0.33 0 0.66 0 1 0 C1.01458252 1.0516333 1.02916504 2.1032666 1.04418945 3.18676758 C1.40920562 27.5634311 1.87367894 50.00659741 10.32080078 73.12353516 C11.26502301 75.73219513 12.13517211 78.36413702 13 81 C12.34 80.67 11.68 80.34 11 80 C11 79.34 11 78.68 11 78 C10.34 78 9.68 78 9 78 C8.82984375 77.32195312 8.6596875 76.64390625 8.484375 75.9453125 C6.9798292 70.16721639 5.20319248 64.68735595 2.8671875 59.19140625 C0.75855643 53.86283854 0.63876771 48.58041538 0.28125 42.8984375 C0.18105771 40.06316719 0.18105771 40.06316719 -1 38 C-1.09875303 35.49316358 -1.13985245 33.0147704 -1.1328125 30.5078125 C-1.13376923 29.76546356 -1.13472595 29.02311462 -1.13571167 28.25827026 C-1.13639265 26.68633947 -1.13454406 25.11440587 -1.13037109 23.54248047 C-1.12503674 21.14153679 -1.13031099 18.74078147 -1.13671875 16.33984375 C-1.13605766 14.81249959 -1.13477585 13.28515554 -1.1328125 11.7578125 C-1.13483673 11.04102325 -1.13686096 10.32423401 -1.13894653 9.58572388 C-1.12333716 6.24835909 -1.03554372 3.19095547 0 0 Z " fill="#5AB6ED" transform="translate(72,236)"/>
<path d="M0 0 C0.33 0 0.66 0 1 0 C1.02888514 3.14581423 1.04675923 6.29159469 1.0625 9.4375 C1.07087891 10.33533203 1.07925781 11.23316406 1.08789062 12.15820312 C1.09111328 13.01220703 1.09433594 13.86621094 1.09765625 14.74609375 C1.10289307 15.53685303 1.10812988 16.3276123 1.11352539 17.14233398 C1 19 1 19 0 20 C-0.0991411 21.33559902 -0.13079812 22.67635294 -0.1328125 24.015625 C-0.13474609 24.84795654 -0.13667969 25.68028809 -0.13867188 26.5378418 C-0.13416016 27.432854 -0.12964844 28.32786621 -0.125 29.25 C-0.12306641 30.16370361 -0.12113281 31.07740723 -0.11914062 32.01879883 C-0.08150008 37.94248021 0.23052535 43.78021014 0.77734375 49.6796875 C1.23077222 56.44134015 1.0730049 63.22676718 1 70 C0.67 70 0.34 70 0 70 C-1.91223712 58.16803282 -2.22200909 46.39550249 -2.25 34.4375 C-2.25499512 33.70485931 -2.25999023 32.97221863 -2.26513672 32.21737671 C-2.32584176 21.3397925 -1.48721627 10.77384864 0 0 Z " fill="#5FBDF0" transform="translate(24,216)"/>
<path d="M0 0 C0 0.33 0 0.66 0 1 C-1.29736084 0.99476318 -2.59472168 0.98952637 -3.93139648 0.98413086 C-8.72647415 0.96608531 -13.5215488 0.95456963 -18.31665039 0.94506836 C-20.39543156 0.94002712 -22.47420916 0.93319426 -24.55297852 0.92456055 C-27.53402586 0.91248578 -30.51502649 0.90676976 -33.49609375 0.90234375 C-34.43150497 0.89718246 -35.3669162 0.89202118 -36.33067322 0.88670349 C-37.19149002 0.88662796 -38.05230682 0.88655243 -38.93920898 0.88647461 C-39.70087875 0.884254 -40.46254852 0.88203339 -41.24729919 0.87974548 C-43.02810605 0.80909045 -43.02810605 0.80909045 -44 2 C-46.52596259 2.23653523 -49.03107207 2.42173692 -51.5625 2.5625 C-52.62887695 2.62727539 -52.62887695 2.62727539 -53.71679688 2.69335938 C-55.47761912 2.79971777 -57.2387832 2.90038846 -59 3 C-42.76412847 -6.01992863 -17.46540087 -3.55659072 0 0 Z " fill="#D2F6FE" transform="translate(198,147)"/>
<path d="M0 0 C0.99 0.495 0.99 0.495 2 1 C-3.45379536 4.43826229 -8.74174456 6.47523094 -15 8 C-15.61456055 8.17354004 -16.22912109 8.34708008 -16.86230469 8.52587891 C-25.95958209 10.77337142 -35.32492794 10.21632922 -44.625 10.125 C-46.41015123 10.11495103 -48.19530794 10.10582857 -49.98046875 10.09765625 C-54.32044931 10.0757925 -58.66016332 10.04136815 -63 10 C-63.33 9.34 -63.66 8.68 -64 8 C-63.04971924 8.02618408 -62.09943848 8.05236816 -61.12036133 8.0793457 C-41.1147893 8.58202862 -22.49030965 8.72312437 -3.57421875 1.26953125 C-2.39472656 0.85058594 -1.21523438 0.43164062 0 0 Z " fill="#4DB1EA" transform="translate(405,357)"/>
<path d="M0 0 C3.63 0 7.26 0 11 0 C11 0.99 11 1.98 11 3 C12.98 2.67 14.96 2.34 17 2 C17.33 2.99 17.66 3.98 18 5 C26.58 5 35.16 5 44 5 C39.22123259 7.3893837 35.92289713 7.38381627 30.6875 7.375 C29.80118896 7.37483887 28.91487793 7.37467773 28.00170898 7.37451172 C18.0335657 7.20405476 9.20447959 4.81942891 0 1 C0 0.67 0 0.34 0 0 Z " fill="#53B4EB" transform="translate(330,322)"/>
<path d="M0 0 C1.98 0.33 3.96 0.66 6 1 C-0.36217279 7.36217279 -12.74618435 7.05107555 -21.1875 7.25 C-38.8562248 7.1437752 -38.8562248 7.1437752 -44 2 C-38.37087273 2.91636956 -38.37087273 2.91636956 -35.66357422 3.52685547 C-32.74874265 4.04463215 -30.03025078 4.12953461 -27.0703125 4.1328125 C-25.94496094 4.13410156 -24.81960937 4.13539063 -23.66015625 4.13671875 C-22.49355469 4.13285156 -21.32695312 4.12898438 -20.125 4.125 C-18.38669922 4.13080078 -18.38669922 4.13080078 -16.61328125 4.13671875 C-10.97256507 4.13027222 -5.55324412 4.01998361 0 3 C0 2.01 0 1.02 0 0 Z " fill="#51B2EB" transform="translate(193,322)"/>
<path d="M0 0 C-2.45630338 0.79845097 -4.91477702 1.58878871 -7.375 2.375 C-8.05433594 2.59671875 -8.73367188 2.8184375 -9.43359375 3.046875 C-19.9636103 6.39286157 -29.5659439 7.27306151 -40.625 7.125 C-41.91535156 7.11597656 -43.20570313 7.10695313 -44.53515625 7.09765625 C-47.69030249 7.0742848 -50.84504926 7.04152091 -54 7 C-54 6.67 -54 6.34 -54 6 C-52.83082031 5.93941406 -51.66164063 5.87882812 -50.45703125 5.81640625 C-48.90884386 5.73195966 -47.36066732 5.64731375 -45.8125 5.5625 C-45.04357422 5.52318359 -44.27464844 5.48386719 -43.48242188 5.44335938 C-39.55034207 5.22397295 -35.86153611 4.79672292 -32 4 C-29.87603512 3.87651367 -27.75078362 3.77421612 -25.625 3.6875 C-18.72685187 3.25773153 -12.65439284 1.73798317 -6.08203125 -0.2578125 C-3 -1 -3 -1 0 0 Z " fill="#D1F2FD" transform="translate(402,359)"/>
<path d="M0 0 C0.33 0 0.66 0 1 0 C1.19588601 3.6454342 1.38030536 7.2913579 1.5625 10.9375 C1.61857422 11.97841797 1.67464844 13.01933594 1.73242188 14.09179688 C1.78076172 15.08115234 1.82910156 16.07050781 1.87890625 17.08984375 C1.9260376 18.00628662 1.97316895 18.92272949 2.02172852 19.86694336 C2 22 2 22 1 23 C0.5868009 26.14782587 0.22872531 29.2930026 -0.07421875 32.453125 C-0.52391947 36.37085673 -0.92523852 38.4885536 -4 41 C-4.97715609 42.80190614 -4.97715609 42.80190614 -5.6875 44.6875 C-6.120625 45.780625 -6.55375 46.87375 -7 48 C-7.66 48 -8.32 48 -9 48 C-7.5865012 43.52392046 -5.87163224 39.2520303 -4 34.953125 C-1.2744933 26.90436302 -0.64555603 18.81860268 -0.375 10.375 C-0.33632813 9.37082031 -0.29765625 8.36664063 -0.2578125 7.33203125 C-0.16471378 4.88818995 -0.07889087 2.44433404 0 0 Z " fill="#55B4ED" transform="translate(439,288)"/>
<path d="M0 0 C0.33 0.66 0.66 1.32 1 2 C-0.328125 4.56640625 -0.328125 4.56640625 -2.25 7.5625 C-2.87390625 8.55378906 -3.4978125 9.54507812 -4.140625 10.56640625 C-6 13 -6 13 -9 14 C-9 14.66 -9 15.32 -9 16 C-9.99 16.33 -10.98 16.66 -12 17 C-12.33 18.65 -12.66 20.3 -13 22 C-15.97 21.67 -18.94 21.34 -22 21 C-19.32178977 18.32178977 -16.78545693 16.39243218 -13.6875 14.25 C-7.95003269 10.12904133 -3.89357498 5.84036247 0 0 Z " fill="#51B3EE" transform="translate(429,336)"/>
<path d="M0 0 C0.33 0.66 0.66 1.32 1 2 C0.360625 2.928125 -0.27875 3.85625 -0.9375 4.8125 C-3.08622093 7.84219943 -3.08622093 7.84219943 -4 11 C-4.99 11 -5.98 11 -7 11 C-7 11.99 -7 12.98 -7 14 C-7.99 14.66 -8.98 15.32 -10 16 C-9.67 16.66 -9.34 17.32 -9 18 C-9.33 18.66 -9.66 19.32 -10 20 C-11.99488234 20.36270588 -13.99598989 20.69169075 -16 21 C-18.76740335 21.77227173 -18.76740335 21.77227173 -21 23 C-21.33 23.99 -21.66 24.98 -22 26 C-23.65 26 -25.3 26 -27 26 C-24.05400648 23.60638026 -21.06066819 21.30583066 -18 19.0625 C-11.03792858 13.84419974 -4.83149519 7.24724278 0 0 Z " fill="#47B4F6" transform="translate(248,330)"/>
<path d="M0 0 C0.99 0 1.98 0 3 0 C2.4706448 2.82322776 1.84697787 5.47761451 0.96875 8.21875 C-0.69559739 14.8337358 -0.20928873 21.72827544 -0.125 28.5 C-0.11495069 29.90884781 -0.10582829 31.31770255 -0.09765625 32.7265625 C-0.07419969 36.1512205 -0.04137384 39.57551939 0 43 C-4.23506189 38.76493811 -3.10112812 30.25152814 -3.1875 24.5625 C-3.16057966 19.1891999 -2.68480559 14.31081016 -1.44140625 9.09375 C-0.86951695 6.38107157 -0.92918978 3.76159843 -1 1 C-0.67 0.67 -0.34 0.34 0 0 Z " fill="#5BB9F0" transform="translate(283,181)"/>
<path d="M0 0 C0.72251953 0.00451172 1.44503906 0.00902344 2.18945312 0.01367188 C3.93883944 0.02525721 5.68818199 0.04318238 7.4375 0.0625 C7.4375 0.3925 7.4375 0.7225 7.4375 1.0625 C-1.4329279 2.81159846 -10.04324018 3.25546291 -19.0625 3.25 C-20.10083984 3.25064453 -21.13917969 3.25128906 -22.20898438 3.25195312 C-27.096672 3.21706373 -31.76051328 3.0903225 -36.5625 2.0625 C-36.5625 1.7325 -36.5625 1.4025 -36.5625 1.0625 C-35.29535156 1.07410156 -34.02820313 1.08570313 -32.72265625 1.09765625 C-31.02343899 1.10704419 -29.32422011 1.11614331 -27.625 1.125 C-26.79419922 1.13337891 -25.96339844 1.14175781 -25.10742188 1.15039062 C-20.25163955 1.16928472 -15.56870344 0.88523902 -10.75219727 0.28735352 C-7.16754131 -0.08074417 -3.59951982 -0.04385544 0 0 Z " fill="#CDF2FC" transform="translate(190.5625,362.9375)"/>
<path d="M0 0 C0 0.99 0 1.98 0 3 C-0.45375 3.4125 -0.9075 3.825 -1.375 4.25 C-3.75529009 6.81338933 -4.18032075 9.65823073 -5 13 C-5.66 13 -6.32 13 -7 13 C-8.48537267 15.1665257 -8.48537267 15.1665257 -10 18 C-10.72777288 19.27163203 -11.45696477 20.54245289 -12.1875 21.8125 C-12.785625 22.864375 -13.38375 23.91625 -14 25 C-15.30310976 21.09067073 -14.41923843 20.07819014 -12.625 16.4375 C-9.32496299 10.04756985 -5.05039355 5.07283975 0 0 Z " fill="#50B4ED" transform="translate(137,193)"/>
<path d="M0 0 C0.66 0.99 1.32 1.98 2 3 C0.02 5.31 -1.96 7.62 -4 10 C-3.67 10.66 -3.34 11.32 -3 12 C-4.32 12.33 -5.64 12.66 -7 13 C-6.67 14.98 -6.34 16.96 -6 19 C-7.2065625 19.6496875 -7.2065625 19.6496875 -8.4375 20.3125 C-11.27846354 21.80474002 -11.27846354 21.80474002 -12 25 C-12.66 25 -13.32 25 -14 25 C-12.44513746 18.99704967 -9.21087137 14.26425427 -5.875 9.125 C-5.03001953 7.80628906 -5.03001953 7.80628906 -4.16796875 6.4609375 C-2.78439416 4.30349915 -1.39497273 2.15007891 0 0 Z " fill="#51B8F1" transform="translate(61,122)"/>
<path d="M0 0 C2.89156088 1.29621695 4.97705364 2.54265028 7 5 C7.38818359 6.95776367 7.38818359 6.95776367 7.3984375 9.16796875 C7.40230469 9.97943359 7.40617187 10.79089844 7.41015625 11.62695312 C7.39855469 12.47193359 7.38695312 13.31691406 7.375 14.1875 C7.38660156 15.01314453 7.39820313 15.83878906 7.41015625 16.68945312 C7.38296042 22.44137102 6.29828481 26.72853722 4 32 C3.34 32 2.68 32 2 32 C2.2165625 31.39414062 2.433125 30.78828125 2.65625 30.1640625 C6.47473493 18.67325138 5.36837142 10.73674285 0 0 Z " fill="#DBF9FE" transform="translate(390,285)"/>
<path d="M0 0 C0.33 0 0.66 0 1 0 C1.01981934 0.85118408 1.03963867 1.70236816 1.06005859 2.5793457 C1.1389777 5.79083024 1.22568955 9.00199147 1.31738281 12.21313477 C1.35525157 13.59293755 1.3901708 14.97282502 1.421875 16.3527832 C1.59942701 23.99029398 1.96608213 31.29365988 3.68212891 38.75463867 C4.02156768 41.15234865 3.74641611 42.71586185 3 45 C-2.25661038 37.11508443 -0.11685634 24.611475 -0.0625 15.375 C-0.05747303 13.87890775 -0.05291225 12.38281387 -0.04882812 10.88671875 C-0.03792185 7.25777781 -0.02072382 3.62889973 0 0 Z " fill="#B7EAFD" transform="translate(116,244)"/>
<path d="M0 0 C2 3 2 3 1.6875 5.33984375 C1.22981074 7.06918101 0.77147916 8.7983484 0.3125 10.52734375 C-0.05058459 13.40025054 0.47855313 14.58917793 2 17 C1.34 17 0.68 17 0 17 C0 18.65 0 20.3 0 22 C-1.32 22 -2.64 22 -4 22 C-3.3622098 14.47407567 -1.80110167 7.32901118 0 0 Z " fill="#4FB8F5" transform="translate(29,192)"/>
<path d="M0 0 C2.0625 0.4375 2.0625 0.4375 4 1 C2.2126038 2.33905267 0.41995047 3.67109066 -1.375 5 C-2.37273437 5.7425 -3.37046875 6.485 -4.3984375 7.25 C-7 9 -7 9 -9 9 C-9.20086443 5.28400809 -9.1519437 4.22791555 -7 1 C-3.9375 0.875 -3.9375 0.875 -1 1 C-0.67 0.67 -0.34 0.34 0 0 Z " fill="#49B6F4" transform="translate(389,435)"/>
<path d="M0 0 C0.66 0.33 1.32 0.66 2 1 C-6.49948636 6.35837184 -15.02323274 8.38441223 -25 9 C-25 8.34 -25 7.68 -25 7 C-23.2984375 6.61908203 -23.2984375 6.61908203 -21.5625 6.23046875 C-20.04160034 5.88310278 -18.52077071 5.53543007 -17 5.1875 C-16.25621094 5.02185547 -15.51242187 4.85621094 -14.74609375 4.68554688 C-10.88720919 3.79632565 -7.24628617 2.76380392 -3.5625 1.30078125 C-2.386875 0.87152344 -1.21125 0.44226563 0 0 Z " fill="#5DBAEE" transform="translate(405,357)"/>
<path d="M0 0 C0.99 0.33 1.98 0.66 3 1 C1.30588371 4.76837575 -1.00423992 7.28071561 -3.85546875 10.21875 C-5.24094296 11.93995368 -5.24094296 11.93995368 -4.67578125 14.03125 C-4.45277344 14.6809375 -4.22976563 15.330625 -4 16 C-4 16.99 -4 17.98 -4 19 C-5.5625 18 -5.5625 18 -7 16 C-6.90865047 10.33632918 -6.2040724 7.07667627 -2 3 C-1.34 3 -0.68 3 0 3 C0 2.01 0 1.02 0 0 Z " fill="#4AB4F1" transform="translate(281,313)"/>
<path d="M0 0 C1.65 0 3.3 0 5 0 C5.33 0.99 5.66 1.98 6 3 C6.99 3 7.98 3 9 3 C9.103125 3.639375 9.20625 4.27875 9.3125 4.9375 C9.6528125 5.9584375 9.6528125 5.9584375 10 7 C10.99 7.33 11.98 7.66 13 8 C14.04644066 9.63790712 15.0398183 11.31008021 16 13 C17.31037934 14.68477344 18.63823078 16.35648543 20 18 C16.68901112 16.55883297 14.51880189 14.76041678 12 12.1875 C11.30390625 11.47851562 10.6078125 10.76953125 9.890625 10.0390625 C8 8 8 8 5.75 5.0625 C3.84933445 2.82242988 2.87898153 2.30846231 0 2 C0 1.34 0 0.68 0 0 Z " fill="#55B6EC" transform="translate(298,296)"/>
<path d="M0 0 C4.03567995 3.69654718 5.71190614 8.16707708 6.2578125 13.53515625 C6.3608041 18.41254399 5.91831125 22.44401078 4 27 C3.67 27 3.34 27 3 27 C3.03480469 25.88882812 3.06960938 24.77765625 3.10546875 23.6328125 C3.28594789 15.26967213 3.24982728 7.87309348 0 0 Z " fill="#5CB9ED" transform="translate(390,286)"/>
<path d="M0 0 C0.66 0.33 1.32 0.66 2 1 C-1.625 5.875 -1.625 5.875 -5 7 C-6.6367612 9.01611471 -8.04776015 11.1332696 -9.5 13.28515625 C-10.2425 14.13400391 -10.2425 14.13400391 -11 15 C-11.99 15 -12.98 15 -14 15 C-12.55053895 11.66026243 -10.71827612 9.47695341 -8.125 6.9375 C-7.44695312 6.26589844 -6.76890625 5.59429687 -6.0703125 4.90234375 C-4.1292063 3.11872353 -2.1380399 1.53881347 0 0 Z " fill="#E2FBFE" transform="translate(306,158)"/>
<path d="M0 0 C0.99 0 1.98 0 3 0 C1.56006357 3.21272249 -0.23018372 5.6206664 -2.5625 8.25 C-3.18253906 8.95640625 -3.80257813 9.6628125 -4.44140625 10.390625 C-5.21291016 11.18726563 -5.21291016 11.18726563 -6 12 C-6.33 12 -6.66 12 -7 12 C-7.3125 9.8125 -7.3125 9.8125 -7 7 C-4.625 4.1875 -4.625 4.1875 -2 2 C-1.34 2 -0.68 2 0 2 C0 1.34 0 0.68 0 0 Z " fill="#4BB4F2" transform="translate(432,393)"/>
<path d="M0 0 C7.43296154 1.8851714 12.93425142 5.37787425 19 10 C18.01 10.495 18.01 10.495 17 11 C14.64018187 10.06421005 12.30368736 9.06652192 10 8 C10 7.34 10 6.68 10 6 C6.77484237 4.26337666 3.48670834 3.1094072 0 2 C0 1.34 0 0.68 0 0 Z " fill="#DEFAFE" transform="translate(401,243)"/>
<path d="M0 0 C0.33 0.66 0.66 1.32 1 2 C0.01 1.67 -0.98 1.34 -2 1 C-1.34 0.67 -0.68 0.34 0 0 Z M-3.8125 2.375 C-2.9153125 2.684375 -2.9153125 2.684375 -2 3 C-2.33 4.65 -2.66 6.3 -3 8 C-5.97 7.67 -8.94 7.34 -12 7 C-6.85365854 1.85365854 -6.85365854 1.85365854 -3.8125 2.375 Z " fill="#46B5F6" transform="translate(419,350)"/>
<path d="M0 0 C-0.66 1.65 -1.32 3.3 -2 5 C-3.32 4.67 -4.64 4.34 -6 4 C-6 3.67 -6 3.34 -6 3 C-7.0828125 3.495 -7.0828125 3.495 -8.1875 4 C-11.01697427 5.00603529 -13.02895466 5.16977402 -16 5 C-13.50448842 2.50448842 -11.33923374 1.92424008 -8 0.8125 C-6.9275 0.44769531 -5.855 0.08289062 -4.75 -0.29296875 C-2 -1 -2 -1 0 0 Z " fill="#50B7F3" transform="translate(183,32)"/>
<path d="M0 0 C5.445 1.485 5.445 1.485 11 3 C7 5 7 5 4 5 C3.67 5.66 3.34 6.32 3 7 C1.68 6.34 0.36 5.68 -1 5 C-0.67 3.35 -0.34 1.7 0 0 Z " fill="#44B4F5" transform="translate(321,263)"/>
<path d="M0 0 C2.97 0.33 5.94 0.66 9 1 C9.33 2.65 9.66 4.3 10 6 C10.99 6 11.98 6 13 6 C13 6.66 13 7.32 13 8 C8.27626146 6.37621488 4.05818166 3.89006982 0 1 C0 0.67 0 0.34 0 0 Z " fill="#52B7F1" transform="translate(125,443)"/>
<path d="M0 0 C1.32 0.66 2.64 1.32 4 2 C0.37 4.97 -3.26 7.94 -7 11 C-7.33 10.34 -7.66 9.68 -8 9 C-7.3125 6.9375 -7.3125 6.9375 -6 5 C-4.66666667 4.66666667 -3.33333333 4.33333333 -2 4 C-0.71563266 2.0162233 -0.71563266 2.0162233 0 0 Z " fill="#4EB5EF" transform="translate(401,424)"/>
<path d="M0 0 C0 0.33 0 0.66 0 1 C-7.47941368 2.94210433 -14.25847464 4.39363688 -22 4 C-15.68598198 -0.20934535 -7.41145544 -0.27967756 0 0 Z " fill="#C8F0FD" transform="translate(352,145)"/>
<path d="M0 0 C-1.67990887 3.87671278 -3.46930065 5.37202078 -7.4375 7 C-8.7059375 7.495 -8.7059375 7.495 -10 8 C-11.34050052 8.65213539 -12.67661368 9.31379969 -14 10 C-4.27777778 0 -4.27777778 0 0 0 Z " fill="#DDF9FE" transform="translate(119,159)"/>
<path d="M0 0 C0.99 0 1.98 0 3 0 C2.39301257 4.12751449 0.96189209 7.3321148 -1 11 C-2.9451 8.08235 -3.45276317 6.37462715 -4 3 C-3.34 3 -2.68 3 -2 3 C-2 3.66 -2 4.32 -2 5 C-1.34 5 -0.68 5 0 5 C0 3.35 0 1.7 0 0 Z " fill="#4CB9F2" transform="translate(460,347)"/>
<path d="M0 0 C0.99 0.66 1.98 1.32 3 2 C2.67 2.33 2.34 2.66 2 3 C2.99 3.66 3.98 4.32 5 5 C4.25 12.75 4.25 12.75 2 15 C2.66 12.03 3.32 9.06 4 6 C2.68 5.67 1.36 5.34 0 5 C-2.25 3.4375 -2.25 3.4375 -4 2 C-2.68 2 -1.36 2 0 2 C0 1.34 0 0.68 0 0 Z " fill="#54B6EF" transform="translate(255,298)"/>
<path d="M0 0 C0.33 0.99 0.66 1.98 1 3 C-1.64 5.97 -4.28 8.94 -7 12 C-7.99 11.67 -8.98 11.34 -10 11 C-9.44570312 10.45730469 -8.89140625 9.91460937 -8.3203125 9.35546875 C-7.23363281 8.28232422 -7.23363281 8.28232422 -6.125 7.1875 C-5.40570313 6.47980469 -4.68640625 5.77210938 -3.9453125 5.04296875 C-1.84641063 2.95600806 -1.84641063 2.95600806 0 0 Z " fill="#DCF9FE" transform="translate(216,308)"/>
<path d="M0 0 C1.125 1.75 1.125 1.75 2 4 C1.125 6.25 1.125 6.25 0 8 C-1.65 7.67 -3.3 7.34 -5 7 C-1.125 1.125 -1.125 1.125 0 0 Z " fill="#48B7F8" transform="translate(76,102)"/>
<path d="M0 0 C-2.96162086 1.62477811 -5.69266927 2.51695886 -9 3.1875 C-9.845625 3.36667969 -10.69125 3.54585938 -11.5625 3.73046875 C-14.03021411 4.00334098 -15.65849506 3.76424119 -18 3 C-11.75690073 0.22528921 -6.80203375 -0.37634203 0 0 Z " fill="#55B8ED" transform="translate(309,475)"/>
<path d="M0 0 C1 2 1 2 0.3125 4.75 C-1.09030108 8.22360267 -2.73135521 11.02240372 -5 14 C-5.66 14 -6.32 14 -7 14 C-5.53967505 8.68972746 -3.01679014 4.53669968 0 0 Z " fill="#DDF9FE" transform="translate(91,184)"/>
<path d="M0 0 C0.66 0.33 1.32 0.66 2 1 C0.53480226 3.54140493 -0.95224699 5.88875077 -3 8 C-6.3125 8.4375 -6.3125 8.4375 -9 8 C-6.14723863 5.06799526 -3.34920216 2.35684596 0 0 Z " fill="#50B6F0" transform="translate(122,60)"/>
<path d="M0 0 C0.66 1.98 1.32 3.96 2 6 C-1.91211733 4.84414715 -4.8745041 3.64465038 -8 1 C-2.25 0 -2.25 0 0 0 Z " fill="#50B6F1" transform="translate(157,456)"/>
<path d="M0 0 C0.66 0 1.32 0 2 0 C0.7580393 3.43927579 -0.55740284 6.25207819 -3 9 C-3.66 9 -4.32 9 -5 9 C-4.625 6.0625 -4.625 6.0625 -4 3 C-3.34 2.67 -2.68 2.34 -2 2 C-1.34 2.33 -0.68 2.66 0 3 C0 2.01 0 1.02 0 0 Z " fill="#4DB5F0" transform="translate(391,313)"/>
<path d="M0 0 C1.31354934 3.94064801 0.30975532 5.3016095 -1.3125 9.0625 C-1.98732422 10.65771484 -1.98732422 10.65771484 -2.67578125 12.28515625 C-4 15 -4 15 -6 17 C-5.34881199 13.54560263 -4.54774266 10.18682849 -3.5625 6.8125 C-3.31628906 5.95269531 -3.07007813 5.09289062 -2.81640625 4.20703125 C-2 2 -2 2 0 0 Z " fill="#55B4ED" transform="translate(222,291)"/>
<path d="M0 0 C0.99 1.0209375 0.99 1.0209375 2 2.0625 C5.49468234 5.56725347 9.25130779 8.77221788 13 12 C12.01 12.33 11.02 12.66 10 13 C5.58112653 9.89738671 2.72950665 6.72414612 0 2 C0 1.34 0 0.68 0 0 Z " fill="#5CB4EA" transform="translate(291,241)"/>
<path d="M0 0 C3.08089673 2.77280706 4.68775452 5.06326356 6 9 C3.0625 8.1875 3.0625 8.1875 0 7 C-1.04449911 3.86650268 -0.93423645 3.01031744 0 0 Z " fill="#48B5F2" transform="translate(443,120)"/>
<path d="M0 0 C4.56454251 0.54339792 7.9728176 1.79463821 12 4 C9.24574641 5.02009392 8.26794241 5.11387552 5.5 3.9375 C3.03035613 2.69782553 3.03035613 2.69782553 0.6875 3.875 C-0.1478125 4.431875 -0.1478125 4.431875 -1 5 C-0.67 3.35 -0.34 1.7 0 0 Z " fill="#D0F4FE" transform="translate(224,288)"/>
<path d="M0 0 C2.31625061 1.11777771 4.62784605 2.24374092 6.9375 3.375 C7.59685547 3.69210938 8.25621094 4.00921875 8.93554688 4.3359375 C13.88671875 6.7734375 13.88671875 6.7734375 15 9 C12.69 8.34 10.38 7.68 8 7 C8 6.34 8 5.68 8 5 C7.13375 4.814375 7.13375 4.814375 6.25 4.625 C3.97664233 3.99351176 2.0746471 3.11141809 0 2 C0 1.34 0 0.68 0 0 Z " fill="#55B4E9" transform="translate(358,45)"/>
<path d="M0 0 C3.63 0.33 7.26 0.66 11 1 C11 1.99 11 2.98 11 4 C11.99 4.33 12.98 4.66 14 5 C13.01 5.495 13.01 5.495 12 6 C10.1953125 5.29296875 10.1953125 5.29296875 8.125 4.1875 C7.10792969 3.65189453 7.10792969 3.65189453 6.0703125 3.10546875 C5.38710937 2.74066406 4.70390625 2.37585938 4 2 C2.68 1.34 1.36 0.68 0 0 Z " fill="#4CB4EE" transform="translate(224,287)"/>
<path d="M0 0 C0.33 1.32 0.66 2.64 1 4 C-2.27185553 5.07310858 -4.42947592 4.89263102 -7.75 4.0625 C-8.54921875 3.86785156 -9.3484375 3.67320312 -10.171875 3.47265625 C-10.77515625 3.31667969 -11.3784375 3.16070312 -12 3 C-12 2.67 -12 2.34 -12 2 C-11.30132812 2.02320313 -10.60265625 2.04640625 -9.8828125 2.0703125 C-8.51769531 2.09738281 -8.51769531 2.09738281 -7.125 2.125 C-6.22007812 2.14820313 -5.31515625 2.17140625 -4.3828125 2.1953125 C-1.81193006 2.24324836 -1.81193006 2.24324836 0 0 Z " fill="#56B8F2" transform="translate(209,473)"/>
<path d="M0 0 C3.24732932 1.62366466 3.70155136 4.75387839 5 8 C1.06326356 6.68775452 -1.22719294 5.08089673 -4 2 C-2.125 0.9375 -2.125 0.9375 0 0 Z " fill="#4EB6F1" transform="translate(116,432)"/>
<path d="M0 0 C-0.33 0.99 -0.66 1.98 -1 3 C-5.21793246 5.06761395 -9.52050867 6.57967348 -14 8 C-11.85086512 5.70982814 -9.65481588 3.98684411 -7 2.3125 C-6.319375 1.87550781 -5.63875 1.43851563 -4.9375 0.98828125 C-3 0 -3 0 0 0 Z " fill="#55B5EC" transform="translate(257,195)"/>
<path d="M0 0 C-2.31 0.33 -4.62 0.66 -7 1 C-7 1.66 -7 2.32 -7 3 C-9.97 3 -12.94 3 -16 3 C-13.2403139 1.16020927 -11.70258118 0.51676779 -8.5625 -0.1875 C-7.41974609 -0.45626953 -7.41974609 -0.45626953 -6.25390625 -0.73046875 C-3.87041504 -1.0154963 -2.26895796 -0.72875415 0 0 Z " fill="#59B8EC" transform="translate(207,26)"/>
<path d="M0 0 C-5.75 4 -5.75 4 -8 4 C-8.33 2.68 -8.66 1.36 -9 0 C-5.62182575 -0.84454356 -3.32534757 -1.10844919 0 0 Z " fill="#49B5F3" transform="translate(378,446)"/>
<path d="M0 0 C0.33 0.66 0.66 1.32 1 2 C0.360625 2.928125 -0.27875 3.85625 -0.9375 4.8125 C-3.08622093 7.84219943 -3.08622093 7.84219943 -4 11 C-5.65 11.33 -7.3 11.66 -9 12 C-6 8 -3 4 0 0 Z " fill="#59B5EB" transform="translate(248,330)"/>
<path d="M0 0 C1.37095624 3.69037278 0.60010967 5.70883835 -0.9375 9.25 C-1.31777344 10.14203125 -1.69804687 11.0340625 -2.08984375 11.953125 C-2.39019531 12.62859375 -2.69054687 13.3040625 -3 14 C-4.37095624 10.30962722 -3.60010967 8.29116165 -2.0625 4.75 C-1.68222656 3.85796875 -1.30195313 2.9659375 -0.91015625 2.046875 C-0.60980469 1.37140625 -0.30945313 0.6959375 0 0 Z " fill="#E0FBFF" transform="translate(436,316)"/>
<path d="M0 0 C0.66 0.33 1.32 0.66 2 1 C0.75803878 2.15454162 -0.49392845 3.29832562 -1.75 4.4375 C-2.79414063 5.39462891 -2.79414063 5.39462891 -3.859375 6.37109375 C-5.98792725 7.99081325 -7.39023405 8.58267256 -10 9 C-10 8.34 -10 7.68 -10 7 C-9.01 6.67 -8.02 6.34 -7 6 C-5.97803008 5.02246356 -4.98020375 4.0194119 -4 3 C-2.68036291 1.98199424 -1.34990354 0.97751635 0 0 Z " fill="#53B2E7" transform="translate(209,314)"/>
<path d="M0 0 C-0.60328125 0.19335938 -1.2065625 0.38671875 -1.828125 0.5859375 C-2.62734375 0.84632813 -3.4265625 1.10671875 -4.25 1.375 C-5.03890625 1.63023437 -5.8278125 1.88546875 -6.640625 2.1484375 C-8.86627958 2.95173667 -10.90931672 3.89711662 -13 5 C-13.66 4.34 -14.32 3.68 -15 3 C-13.25531628 2.29911844 -11.50398839 1.61475991 -9.75 0.9375 C-8.77546875 0.55464844 -7.8009375 0.17179688 -6.796875 -0.22265625 C-3.95992605 -1.01113787 -2.70590448 -1.02437812 0 0 Z " fill="#D7F7FE" transform="translate(330,150)"/>
<path d="M0 0 C4.50802601 1.25805377 7.4912812 2.90407165 11 6 C7.36029133 6.42820102 5.95430537 5.97413512 2.6875 4.125 C1.800625 3.42375 0.91375 2.7225 0 2 C0 1.34 0 0.68 0 0 Z " fill="#D9F9FE" transform="translate(236,293)"/>
<path d="M0 0 C0.66 0 1.32 0 2 0 C2.33 0.66 2.66 1.32 3 2 C4.64142963 3.0409066 6.30712215 4.04504326 8 5 C7.67 6.32 7.34 7.64 7 9 C5.83037314 7.69013727 4.66437056 6.3770374 3.5 5.0625 C2.8503125 4.33160156 2.200625 3.60070312 1.53125 2.84765625 C0 1 0 1 0 0 Z " fill="#51B5EE" transform="translate(77,400)"/>
<path d="M0 0 C4.69023454 0.56606279 9.34500026 1.18537505 14 2 C14 2.33 14 2.66 14 3 C12.22992286 3.08114106 10.45877902 3.13925505 8.6875 3.1875 C7.70136719 3.22230469 6.71523437 3.25710938 5.69921875 3.29296875 C3 3 3 3 1.14453125 1.48828125 C0.76683594 0.99714844 0.38914063 0.50601562 0 0 Z " fill="#52B4ED" transform="translate(140,362)"/>
<path d="M0 0 C-7.42857143 4.42857143 -7.42857143 4.42857143 -11 5 C-10 2 -10 2 -8.22265625 1.015625 C-7.15337891 0.63664062 -7.15337891 0.63664062 -6.0625 0.25 C-5.35222656 -0.01296875 -4.64195312 -0.2759375 -3.91015625 -0.546875 C-2 -1 -2 -1 0 0 Z " fill="#53B5EC" transform="translate(407,358)"/>
<path d="M0 0 C0.33 0 0.66 0 1 0 C1.33 2.64 1.66 5.28 2 8 C-0.475 9.485 -0.475 9.485 -3 11 C-2.01 7.37 -1.02 3.74 0 0 Z " fill="#52B7F3" transform="translate(36,170)"/>
<path d="M0 0 C0.99 0.33 1.98 0.66 3 1 C1.85760183 2.33627775 0.71098945 3.66895388 -0.4375 5 C-1.07558594 5.7425 -1.71367187 6.485 -2.37109375 7.25 C-3.17740234 8.11625 -3.17740234 8.11625 -4 9 C-4.33 9 -4.66 9 -5 9 C-5 7.35 -5 5.7 -5 4 C-4.01 4 -3.02 4 -2 4 C-2 3.34 -2 2.68 -2 2 C-1.34 2 -0.68 2 0 2 C0 1.34 0 0.68 0 0 Z " fill="#53B7EE" transform="translate(295,165)"/>
<path d="M0 0 C0.99 0.66 1.98 1.32 3 2 C-0.465 4.97 -0.465 4.97 -4 8 C-4.33 6.68 -4.66 5.36 -5 4 C-3.35 3.67 -1.7 3.34 0 3 C0 2.01 0 1.02 0 0 Z " fill="#50B6F2" transform="translate(101,168)"/>
<path d="M0 0 C0.66 0.33 1.32 0.66 2 1 C-0.51830747 4.12270126 -1.7261549 4.94523098 -5.75 5.75 C-7.35875 5.87375 -7.35875 5.87375 -9 6 C-6.45368965 3.02930459 -3.57769851 1.5224249 0 0 Z " fill="#5BB7EF" transform="translate(151,43)"/>
<path d="M0 0 C5.75 1.75 5.75 1.75 8 4 C6.824375 4.4640625 6.824375 4.4640625 5.625 4.9375 C3.07669872 5.92875038 3.07669872 5.92875038 1 7 C1.33 5.68 1.66 4.36 2 3 C1.34 2.67 0.68 2.34 0 2 C0 1.34 0 0.68 0 0 Z " fill="#4BB6F2" transform="translate(345,39)"/>
<path d="M0 0 C1.32 0 2.64 0 4 0 C2.90931332 3.77545388 2.0916909 6.47043472 -1 9 C-1.33 7.68 -1.66 6.36 -2 5 C-1.01 4.67 -0.02 4.34 1 4 C0.67 2.68 0.34 1.36 0 0 Z " fill="#4CB5EE" transform="translate(452,361)"/>
<path d="M0 0 C0.33 0.66 0.66 1.32 1 2 C-0.2065625 2.4021875 -0.2065625 2.4021875 -1.4375 2.8125 C-2.283125 3.204375 -3.12875 3.59625 -4 4 C-4.33 4.99 -4.66 5.98 -5 7 C-6.65 7 -8.3 7 -10 7 C-6.80331012 4.3513141 -3.60513403 2.06007659 0 0 Z " fill="#56B4E9" transform="translate(231,349)"/>
<path d="M0 0 C1.16959987 0.97566112 2.33561177 1.955625 3.5 2.9375 C4.1496875 3.48277344 4.799375 4.02804687 5.46875 4.58984375 C5.9740625 5.05519531 6.479375 5.52054687 7 6 C7 6.33 7 6.66 7 7 C5.35 7 3.7 7 2 7 C2.33 6.01 2.66 5.02 3 4 C2.01 4.33 1.02 4.66 0 5 C0 3.35 0 1.7 0 0 Z " fill="#4FB4F1" transform="translate(98,336)"/>
<path d="M0 0 C4.92127034 -0.16682272 8.50343896 -0.24828052 13 2 C13 2.66 13 3.32 13 4 C8.51474352 3.343621 4.33085971 2.29925791 0 1 C0 0.67 0 0.34 0 0 Z " fill="#CFF4FD" transform="translate(376,183)"/>
<path d="M0 0 C2.88437779 1.29299694 4.87219421 2.65941363 7 5 C1.25 5.125 1.25 5.125 -1 4 C-0.67 2.68 -0.34 1.36 0 0 Z " fill="#50B6EF" transform="translate(107,345)"/>
<path d="M0 0 C2 2 2 2 2 5 C2.66 5 3.32 5 4 5 C4 6.65 4 8.3 4 10 C3.67 9.01 3.34 8.02 3 7 C2.34 7 1.68 7 1 7 C-0.625 5 -0.625 5 -2 3 C-1.34 2.01 -0.68 1.02 0 0 Z " fill="#46B6F6" transform="translate(476,198)"/>
<path d="M0 0 C2.5 2.3125 2.5 2.3125 5 5 C5 5.99 5 6.98 5 8 C4.34 7.34 3.68 6.68 3 6 C0.42938689 5.35232207 0.42938689 5.35232207 -2 5 C-1.34 4.67 -0.68 4.34 0 4 C0 2.68 0 1.36 0 0 Z " fill="#4EB4EE" transform="translate(437,112)"/>
<path d="M0 0 C0 3.99904969 -1.72586967 5.80200422 -4 9 C-4.99 8.34 -5.98 7.68 -7 7 C-4.69 4.69 -2.38 2.38 0 0 Z " fill="#4EB6ED" transform="translate(88,89)"/>
<path d="M0 0 C1.32 0 2.64 0 4 0 C4 0.66 4 1.32 4 2 C4.99 1.67 5.98 1.34 7 1 C7.33 2.65 7.66 4.3 8 6 C4.63408134 4.55746343 2.48952921 2.66735273 0 0 Z " fill="#4DB6ED" transform="translate(101,425)"/>
<path d="M0 0 C0.99 0 1.98 0 3 0 C1.77263971 4.15414253 0.672336 6.43688534 -2 10 C-1.34 6.7 -0.68 3.4 0 0 Z " fill="#DCFBFF" transform="translate(250,320)"/>
<path d="M0 0 C2.93200474 2.85276137 5.64315404 5.65079784 8 9 C5.6875 8.875 5.6875 8.875 3 8 C0 3.13793103 0 3.13793103 0 0 Z " fill="#D5FAFE" transform="translate(304,301)"/>
<path d="M0 0 C0.66 0 1.32 0 2 0 C2 0.66 2 1.32 2 2 C2.99 2.33 3.98 2.66 5 3 C5 5.31 5 7.62 5 10 C2.82145293 6.7321794 1.50239966 3.61941735 0 0 Z " fill="#52B2E9" transform="translate(431,266)"/>
<path d="M0 0 C-2.35968744 2.09749995 -3.54616994 2.96905704 -6.75 3.1875 C-7.86375 3.0946875 -7.86375 3.0946875 -9 3 C-9.33 2.34 -9.66 1.68 -10 1 C-3.375 -1.125 -3.375 -1.125 0 0 Z " fill="#D2F9FE" transform="translate(231,210)"/>
<path d="M0 0 C3.63 0.66 7.26 1.32 11 2 C11 2.33 11 2.66 11 3 C7.7 3 4.4 3 1 3 C0.67 2.01 0.34 1.02 0 0 Z " fill="#55B8F3" transform="translate(305,26)"/>
<path d="M0 0 C0.66 0.66 1.32 1.32 2 2 C1.67 2.66 1.34 3.32 1 4 C1.60578253 6.01927511 2.26919734 8.02253397 3 10 C-0.2542015 7.16569547 -1.5206753 5.31392226 -2 1 C-1.34 0.67 -0.68 0.34 0 0 Z " fill="#44B3F4" transform="translate(61,373)"/>
<path d="M0 0 C2.64 1.98 5.28 3.96 8 6 C7.01 6.33 6.02 6.66 5 7 C3.29115995 5.37660195 1.62553283 3.70680947 0 2 C0 1.34 0 0.68 0 0 Z " fill="#DBF9FE" transform="translate(312,310)"/>
<path d="M0 0 C0.33 0.66 0.66 1.32 1 2 C0.67 2.99 0.34 3.98 0 5 C0.66 5 1.32 5 2 5 C1.67 5.99 1.34 6.98 1 8 C-0.65 5.69 -2.3 3.38 -4 1 C-2.68 0.67 -1.36 0.34 0 0 Z " fill="#4BB5F1" transform="translate(429,257)"/>
<path d="M0 0 C0.33 1.32 0.66 2.64 1 4 C-3.625 7 -3.625 7 -7 7 C-4.69 4.69 -2.38 2.38 0 0 Z " fill="#4FB5EB" transform="translate(96,81)"/>
<path d="M0 0 C2.31 1.98 4.62 3.96 7 6 C5 7 5 7 2.9375 6.375 C1 5 1 5 0.25 2.375 C0.1675 1.59125 0.085 0.8075 0 0 Z " fill="#4AAFE9" transform="translate(282,337)"/>
<path d="M0 0 C4.455 1.98 4.455 1.98 9 4 C5 5 5 5 2.25 3.6875 C1.5075 3.130625 0.765 2.57375 0 2 C0 1.34 0 0.68 0 0 Z " fill="#D8F9FF" transform="translate(140,320)"/>
<path d="M0 0 C0.66 2.64 1.32 5.28 2 8 C-2.875 3.25 -2.875 3.25 -4 1 C-2 0 -2 0 0 0 Z " fill="#57B6F1" transform="translate(132,306)"/>
<path d="M0 0 C1.98 0 3.96 0 6 0 C6.33 1.65 6.66 3.3 7 5 C3.535 3.02 3.535 3.02 0 1 C0 0.67 0 0.34 0 0 Z " fill="#4AB3F0" transform="translate(414,157)"/>
<path d="M0 0 C1.98 0 3.96 0 6 0 C3.37801226 2.15377564 1.35595828 3.40072174 -2 4 C-1.34 2.68 -0.68 1.36 0 0 Z " fill="#49B4ED" transform="translate(122,153)"/>
</svg>
